<svg xmlns="http://www.w3.org/2000/svg" viewBox="0 0 760 500" width="760" height="500" font-family="-apple-system, Segoe UI, Helvetica, Arial, sans-serif" role="img" aria-label="Kostendifferenz A minus B und A minus C über der Ticketmenge">
<style>:root{--bg:#fcfcfb;--t1:#0b0b0b;--t2:#52514e;--grid:#e6e5e1;--zero:#8a8984;--AB:#eb6834;--AC:#1baf7a;}@media (prefers-color-scheme: dark){:root{--bg:#1a1a19;--t1:#ffffff;--t2:#c3c2b7;--grid:#34332f;--AB:#d95926;--AC:#199e70;}} text{fill:var(--t2);font-size:12px} .t1{fill:var(--t1)}</style>
<rect width="760" height="500" fill="var(--bg)"/>
<text x="24" y="26" class="t1" font-size="16" font-weight="600">Selbst betreiben (A) gegen Kaufen (B, C)</text>
<text x="24" y="46">EUR je Monat. Über 0: A ist teurer. Unter 0: A ist günstiger. Ring = Kipppunkt.</text>
<line x1="24" y1="70" x2="46" y2="70" stroke="var(--AB)" stroke-width="2"/><text x="52" y="74">A minus B</text>
<line x1="154" y1="70" x2="176" y2="70" stroke="var(--AC)" stroke-width="2"/><text x="182" y="74">A minus C</text>
<line x1="84" y1="436.0" x2="610" y2="436.0" stroke="var(--grid)"/>
<text x="76" y="440.0" text-anchor="end">-70.000</text>
<line x1="84" y1="394.5" x2="610" y2="394.5" stroke="var(--grid)"/>
<text x="76" y="398.5" text-anchor="end">-60.000</text>
<line x1="84" y1="353.0" x2="610" y2="353.0" stroke="var(--grid)"/>
<text x="76" y="357.0" text-anchor="end">-50.000</text>
<line x1="84" y1="311.5" x2="610" y2="311.5" stroke="var(--grid)"/>
<text x="76" y="315.5" text-anchor="end">-40.000</text>
<line x1="84" y1="270.0" x2="610" y2="270.0" stroke="var(--grid)"/>
<text x="76" y="274.0" text-anchor="end">-30.000</text>
<line x1="84" y1="228.5" x2="610" y2="228.5" stroke="var(--grid)"/>
<text x="76" y="232.5" text-anchor="end">-20.000</text>
<line x1="84" y1="187.0" x2="610" y2="187.0" stroke="var(--grid)"/>
<text x="76" y="191.0" text-anchor="end">-10.000</text>
<line x1="84" y1="145.5" x2="610" y2="145.5" stroke="var(--zero)"/>
<text x="76" y="149.5" text-anchor="end">0</text>
<line x1="84" y1="104.0" x2="610" y2="104.0" stroke="var(--grid)"/>
<text x="76" y="108.0" text-anchor="end">10.000</text>
<line x1="84.0" y1="104" x2="84.0" y2="436" stroke="var(--grid)"/>
<text x="84.0" y="454" text-anchor="middle">1.000</text>
<line x1="163.2" y1="104" x2="163.2" y2="436" stroke="var(--grid)"/>
<text x="163.2" y="454" text-anchor="middle">2.000</text>
<line x1="267.8" y1="104" x2="267.8" y2="436" stroke="var(--grid)"/>
<text x="267.8" y="454" text-anchor="middle">5.000</text>
<line x1="347.0" y1="104" x2="347.0" y2="436" stroke="var(--grid)"/>
<text x="347.0" y="454" text-anchor="middle">10.000</text>
<line x1="426.2" y1="104" x2="426.2" y2="436" stroke="var(--grid)"/>
<text x="426.2" y="454" text-anchor="middle">20.000</text>
<line x1="530.8" y1="104" x2="530.8" y2="436" stroke="var(--grid)"/>
<text x="530.8" y="454" text-anchor="middle">50.000</text>
<line x1="610.0" y1="104" x2="610.0" y2="436" stroke="var(--grid)"/>
<text x="610.0" y="454" text-anchor="middle">100.000</text>
<text x="347" y="476" text-anchor="middle">Tickets je Monat (logarithmisch)</text>
<polyline fill="none" stroke="var(--AB)" stroke-width="2" stroke-linejoin="round" points="84.0,138.1 97.1,138.5 110.3,138.9 123.5,139.4 136.6,139.9 149.7,140.5 162.9,141.1 163.2,141.1 176.1,141.8 189.2,142.7 202.3,143.6 209.5,144.1 215.5,144.6 228.6,145.8 241.8,147.1 255.0,148.5 267.8,150.1 268.1,150.2 281.2,152.0 294.4,154.1 307.5,156.4 314.1,157.6 320.7,159.0 333.9,161.9 347.0,165.1 360.1,168.8 373.3,172.9 386.4,177.5 393.3,180.1 399.6,182.7 412.8,188.5 425.9,195.0 426.2,195.1 439.0,202.3 452.2,210.5 465.4,219.7 472.5,225.2 478.5,230.0 491.6,241.6 504.8,254.6 517.9,269.2 530.8,285.2 531.1,285.5 544.2,303.9 557.4,324.5 570.6,347.6 577.1,360.2 583.7,373.5 596.8,402.6 610.0,435.2"/>
<circle cx="84.0" cy="138.1" r="7" fill="transparent"><title>A minus B, 1.000 Tickets: 1.776 EUR</title></circle>
<circle cx="97.1" cy="138.5" r="7" fill="transparent"><title>A minus B, 1.122 Tickets: 1.687 EUR</title></circle>
<circle cx="110.3" cy="138.9" r="7" fill="transparent"><title>A minus B, 1.259 Tickets: 1.588 EUR</title></circle>
<circle cx="123.5" cy="139.4" r="7" fill="transparent"><title>A minus B, 1.413 Tickets: 1.477 EUR</title></circle>
<circle cx="136.6" cy="139.9" r="7" fill="transparent"><title>A minus B, 1.585 Tickets: 1.353 EUR</title></circle>
<circle cx="149.7" cy="140.5" r="7" fill="transparent"><title>A minus B, 1.778 Tickets: 1.213 EUR</title></circle>
<circle cx="162.9" cy="141.1" r="7" fill="transparent"><title>A minus B, 1.995 Tickets: 1.056 EUR</title></circle>
<circle cx="163.2" cy="141.1" r="7" fill="transparent"><title>A minus B, 2.000 Tickets: 1.053 EUR</title></circle>
<circle cx="176.1" cy="141.8" r="7" fill="transparent"><title>A minus B, 2.239 Tickets: 880 EUR</title></circle>
<circle cx="189.2" cy="142.7" r="7" fill="transparent"><title>A minus B, 2.512 Tickets: 682 EUR</title></circle>
<circle cx="202.3" cy="143.6" r="7" fill="transparent"><title>A minus B, 2.818 Tickets: 461 EUR</title></circle>
<circle cx="209.5" cy="144.1" r="7" fill="transparent"><title>A minus B, 3.000 Tickets: 329 EUR</title></circle>
<circle cx="215.5" cy="144.6" r="7" fill="transparent"><title>A minus B, 3.162 Tickets: 212 EUR</title></circle>
<circle cx="228.6" cy="145.8" r="7" fill="transparent"><title>A minus B, 3.548 Tickets: -67 EUR</title></circle>
<circle cx="241.8" cy="147.1" r="7" fill="transparent"><title>A minus B, 3.981 Tickets: -380 EUR</title></circle>
<circle cx="255.0" cy="148.5" r="7" fill="transparent"><title>A minus B, 4.467 Tickets: -731 EUR</title></circle>
<circle cx="267.8" cy="150.1" r="7" fill="transparent"><title>A minus B, 5.000 Tickets: -1.117 EUR</title></circle>
<circle cx="268.1" cy="150.2" r="7" fill="transparent"><title>A minus B, 5.012 Tickets: -1.125 EUR</title></circle>
<circle cx="281.2" cy="152.0" r="7" fill="transparent"><title>A minus B, 5.623 Tickets: -1.567 EUR</title></circle>
<circle cx="294.4" cy="154.1" r="7" fill="transparent"><title>A minus B, 6.310 Tickets: -2.064 EUR</title></circle>
<circle cx="307.5" cy="156.4" r="7" fill="transparent"><title>A minus B, 7.079 Tickets: -2.620 EUR</title></circle>
<circle cx="314.1" cy="157.6" r="7" fill="transparent"><title>A minus B, 7.500 Tickets: -2.924 EUR</title></circle>
<circle cx="320.7" cy="159.0" r="7" fill="transparent"><title>A minus B, 7.943 Tickets: -3.245 EUR</title></circle>
<circle cx="333.9" cy="161.9" r="7" fill="transparent"><title>A minus B, 8.913 Tickets: -3.946 EUR</title></circle>
<circle cx="347.0" cy="165.1" r="7" fill="transparent"><title>A minus B, 10.000 Tickets: -4.732 EUR</title></circle>
<circle cx="360.1" cy="168.8" r="7" fill="transparent"><title>A minus B, 11.220 Tickets: -5.614 EUR</title></circle>
<circle cx="373.3" cy="172.9" r="7" fill="transparent"><title>A minus B, 12.589 Tickets: -6.604 EUR</title></circle>
<circle cx="386.4" cy="177.5" r="7" fill="transparent"><title>A minus B, 14.125 Tickets: -7.715 EUR</title></circle>
<circle cx="393.3" cy="180.1" r="7" fill="transparent"><title>A minus B, 15.000 Tickets: -8.347 EUR</title></circle>
<circle cx="399.6" cy="182.7" r="7" fill="transparent"><title>A minus B, 15.849 Tickets: -8.961 EUR</title></circle>
<circle cx="412.8" cy="188.5" r="7" fill="transparent"><title>A minus B, 17.783 Tickets: -10.359 EUR</title></circle>
<circle cx="425.9" cy="195.0" r="7" fill="transparent"><title>A minus B, 19.953 Tickets: -11.929 EUR</title></circle>
<circle cx="426.2" cy="195.1" r="7" fill="transparent"><title>A minus B, 20.000 Tickets: -11.963 EUR</title></circle>
<circle cx="439.0" cy="202.3" r="7" fill="transparent"><title>A minus B, 22.387 Tickets: -13.688 EUR</title></circle>
<circle cx="452.2" cy="210.5" r="7" fill="transparent"><title>A minus B, 25.119 Tickets: -15.664 EUR</title></circle>
<circle cx="465.4" cy="219.7" r="7" fill="transparent"><title>A minus B, 28.184 Tickets: -17.880 EUR</title></circle>
<circle cx="472.5" cy="225.2" r="7" fill="transparent"><title>A minus B, 30.000 Tickets: -19.193 EUR</title></circle>
<circle cx="478.5" cy="230.0" r="7" fill="transparent"><title>A minus B, 31.623 Tickets: -20.367 EUR</title></circle>
<circle cx="491.6" cy="241.6" r="7" fill="transparent"><title>A minus B, 35.481 Tickets: -23.156 EUR</title></circle>
<circle cx="504.8" cy="254.6" r="7" fill="transparent"><title>A minus B, 39.811 Tickets: -26.287 EUR</title></circle>
<circle cx="517.9" cy="269.2" r="7" fill="transparent"><title>A minus B, 44.668 Tickets: -29.799 EUR</title></circle>
<circle cx="530.8" cy="285.2" r="7" fill="transparent"><title>A minus B, 50.000 Tickets: -33.654 EUR</title></circle>
<circle cx="531.1" cy="285.5" r="7" fill="transparent"><title>A minus B, 50.119 Tickets: -33.740 EUR</title></circle>
<circle cx="544.2" cy="303.9" r="7" fill="transparent"><title>A minus B, 56.234 Tickets: -38.162 EUR</title></circle>
<circle cx="557.4" cy="324.5" r="7" fill="transparent"><title>A minus B, 63.096 Tickets: -43.123 EUR</title></circle>
<circle cx="570.6" cy="347.6" r="7" fill="transparent"><title>A minus B, 70.795 Tickets: -48.690 EUR</title></circle>
<circle cx="577.1" cy="360.2" r="7" fill="transparent"><title>A minus B, 75.000 Tickets: -51.731 EUR</title></circle>
<circle cx="583.7" cy="373.5" r="7" fill="transparent"><title>A minus B, 79.433 Tickets: -54.936 EUR</title></circle>
<circle cx="596.8" cy="402.6" r="7" fill="transparent"><title>A minus B, 89.125 Tickets: -61.944 EUR</title></circle>
<circle cx="610.0" cy="435.2" r="7" fill="transparent"><title>A minus B, 100.000 Tickets: -69.807 EUR</title></circle>
<polyline fill="none" stroke="var(--AC)" stroke-width="2" stroke-linejoin="round" points="84.0,138.1 97.1,138.3 110.3,138.6 123.5,138.8 136.6,139.1 149.7,139.5 162.9,139.9 163.2,139.9 176.1,140.3 189.2,140.8 202.3,141.4 209.5,141.7 215.5,142.0 228.6,142.7 241.8,143.5 255.0,144.4 267.8,145.3 268.1,145.4 281.2,146.5 294.4,147.7 307.5,149.1 314.1,149.9 320.7,150.7 333.9,152.4 347.0,154.4 360.1,156.6 373.3,159.1 386.4,161.9 393.3,163.5 399.6,165.0 412.8,168.6 425.9,172.5 426.2,172.6 439.0,176.9 452.2,181.9 465.4,187.4 472.5,190.7 478.5,193.7 491.6,200.7 504.8,208.5 517.9,217.4 530.8,227.0 531.1,227.3 544.2,238.4 557.4,250.8 570.6,264.8 577.1,272.4 583.7,280.5 596.8,298.1 610.0,317.8"/>
<circle cx="84.0" cy="138.1" r="7" fill="transparent"><title>A minus C, 1.000 Tickets: 1.787 EUR</title></circle>
<circle cx="97.1" cy="138.3" r="7" fill="transparent"><title>A minus C, 1.122 Tickets: 1.733 EUR</title></circle>
<circle cx="110.3" cy="138.6" r="7" fill="transparent"><title>A minus C, 1.259 Tickets: 1.673 EUR</title></circle>
<circle cx="123.5" cy="138.8" r="7" fill="transparent"><title>A minus C, 1.413 Tickets: 1.606 EUR</title></circle>
<circle cx="136.6" cy="139.1" r="7" fill="transparent"><title>A minus C, 1.585 Tickets: 1.531 EUR</title></circle>
<circle cx="149.7" cy="139.5" r="7" fill="transparent"><title>A minus C, 1.778 Tickets: 1.446 EUR</title></circle>
<circle cx="162.9" cy="139.9" r="7" fill="transparent"><title>A minus C, 1.995 Tickets: 1.352 EUR</title></circle>
<circle cx="163.2" cy="139.9" r="7" fill="transparent"><title>A minus C, 2.000 Tickets: 1.349 EUR</title></circle>
<circle cx="176.1" cy="140.3" r="7" fill="transparent"><title>A minus C, 2.239 Tickets: 1.245 EUR</title></circle>
<circle cx="189.2" cy="140.8" r="7" fill="transparent"><title>A minus C, 2.512 Tickets: 1.125 EUR</title></circle>
<circle cx="202.3" cy="141.4" r="7" fill="transparent"><title>A minus C, 2.818 Tickets: 992 EUR</title></circle>
<circle cx="209.5" cy="141.7" r="7" fill="transparent"><title>A minus C, 3.000 Tickets: 912 EUR</title></circle>
<circle cx="215.5" cy="142.0" r="7" fill="transparent"><title>A minus C, 3.162 Tickets: 841 EUR</title></circle>
<circle cx="228.6" cy="142.7" r="7" fill="transparent"><title>A minus C, 3.548 Tickets: 672 EUR</title></circle>
<circle cx="241.8" cy="143.5" r="7" fill="transparent"><title>A minus C, 3.981 Tickets: 483 EUR</title></circle>
<circle cx="255.0" cy="144.4" r="7" fill="transparent"><title>A minus C, 4.467 Tickets: 270 EUR</title></circle>
<circle cx="267.8" cy="145.3" r="7" fill="transparent"><title>A minus C, 5.000 Tickets: 37 EUR</title></circle>
<circle cx="268.1" cy="145.4" r="7" fill="transparent"><title>A minus C, 5.012 Tickets: 32 EUR</title></circle>
<circle cx="281.2" cy="146.5" r="7" fill="transparent"><title>A minus C, 5.623 Tickets: -235 EUR</title></circle>
<circle cx="294.4" cy="147.7" r="7" fill="transparent"><title>A minus C, 6.310 Tickets: -536 EUR</title></circle>
<circle cx="307.5" cy="149.1" r="7" fill="transparent"><title>A minus C, 7.079 Tickets: -872 EUR</title></circle>
<circle cx="314.1" cy="149.9" r="7" fill="transparent"><title>A minus C, 7.500 Tickets: -1.057 EUR</title></circle>
<circle cx="320.7" cy="150.7" r="7" fill="transparent"><title>A minus C, 7.943 Tickets: -1.250 EUR</title></circle>
<circle cx="333.9" cy="152.4" r="7" fill="transparent"><title>A minus C, 8.913 Tickets: -1.675 EUR</title></circle>
<circle cx="347.0" cy="154.4" r="7" fill="transparent"><title>A minus C, 10.000 Tickets: -2.150 EUR</title></circle>
<circle cx="360.1" cy="156.6" r="7" fill="transparent"><title>A minus C, 11.220 Tickets: -2.684 EUR</title></circle>
<circle cx="373.3" cy="159.1" r="7" fill="transparent"><title>A minus C, 12.589 Tickets: -3.283 EUR</title></circle>
<circle cx="386.4" cy="161.9" r="7" fill="transparent"><title>A minus C, 14.125 Tickets: -3.954 EUR</title></circle>
<circle cx="393.3" cy="163.5" r="7" fill="transparent"><title>A minus C, 15.000 Tickets: -4.337 EUR</title></circle>
<circle cx="399.6" cy="165.0" r="7" fill="transparent"><title>A minus C, 15.849 Tickets: -4.709 EUR</title></circle>
<circle cx="412.8" cy="168.6" r="7" fill="transparent"><title>A minus C, 17.783 Tickets: -5.555 EUR</title></circle>
<circle cx="425.9" cy="172.5" r="7" fill="transparent"><title>A minus C, 19.953 Tickets: -6.504 EUR</title></circle>
<circle cx="426.2" cy="172.6" r="7" fill="transparent"><title>A minus C, 20.000 Tickets: -6.524 EUR</title></circle>
<circle cx="439.0" cy="176.9" r="7" fill="transparent"><title>A minus C, 22.387 Tickets: -7.568 EUR</title></circle>
<circle cx="452.2" cy="181.9" r="7" fill="transparent"><title>A minus C, 25.119 Tickets: -8.763 EUR</title></circle>
<circle cx="465.4" cy="187.4" r="7" fill="transparent"><title>A minus C, 28.184 Tickets: -10.104 EUR</title></circle>
<circle cx="472.5" cy="190.7" r="7" fill="transparent"><title>A minus C, 30.000 Tickets: -10.899 EUR</title></circle>
<circle cx="478.5" cy="193.7" r="7" fill="transparent"><title>A minus C, 31.623 Tickets: -11.608 EUR</title></circle>
<circle cx="491.6" cy="200.7" r="7" fill="transparent"><title>A minus C, 35.481 Tickets: -13.296 EUR</title></circle>
<circle cx="504.8" cy="208.5" r="7" fill="transparent"><title>A minus C, 39.811 Tickets: -15.190 EUR</title></circle>
<circle cx="517.9" cy="217.4" r="7" fill="transparent"><title>A minus C, 44.668 Tickets: -17.315 EUR</title></circle>
<circle cx="530.8" cy="227.0" r="7" fill="transparent"><title>A minus C, 50.000 Tickets: -19.647 EUR</title></circle>
<circle cx="531.1" cy="227.3" r="7" fill="transparent"><title>A minus C, 50.119 Tickets: -19.699 EUR</title></circle>
<circle cx="544.2" cy="238.4" r="7" fill="transparent"><title>A minus C, 56.234 Tickets: -22.374 EUR</title></circle>
<circle cx="557.4" cy="250.8" r="7" fill="transparent"><title>A minus C, 63.096 Tickets: -25.375 EUR</title></circle>
<circle cx="570.6" cy="264.8" r="7" fill="transparent"><title>A minus C, 70.795 Tickets: -28.743 EUR</title></circle>
<circle cx="577.1" cy="272.4" r="7" fill="transparent"><title>A minus C, 75.000 Tickets: -30.583 EUR</title></circle>
<circle cx="583.7" cy="280.5" r="7" fill="transparent"><title>A minus C, 79.433 Tickets: -32.522 EUR</title></circle>
<circle cx="596.8" cy="298.1" r="7" fill="transparent"><title>A minus C, 89.125 Tickets: -36.761 EUR</title></circle>
<circle cx="610.0" cy="317.8" r="7" fill="transparent"><title>A minus C, 100.000 Tickets: -41.518 EUR</title></circle>
<text x="618" y="436.0" class="t1">A minus B</text>
<text x="618" y="321.8" class="t1">A minus C</text>
<circle cx="225.6" cy="145.5" r="5" fill="var(--bg)" stroke="var(--t1)" stroke-width="2"><title>3.456</title></circle>
<text x="225.6" y="135.5" text-anchor="middle" class="t1">3.456</text>
<circle cx="269.7" cy="145.5" r="5" fill="var(--bg)" stroke="var(--t1)" stroke-width="2"><title>5.085</title></circle>
<text x="269.7" y="135.5" text-anchor="middle" class="t1">5.085</text>
</svg>
